<mxfile host="app.diagrams.net" modified="2024-04-22T19:22:30.108Z" agent="Mozilla/5.0 (Windows NT 10.0; Win64; x64) AppleWebKit/537.36 (KHTML, like Gecko) Chrome/123.0.0.0 Safari/537.36 Edg/123.0.0.0" etag="7b1vGdHTsCEgsX1SXlw-" version="24.2.5" type="github">
  <diagram name="Seite-1" id="n43Q2hlfnNrCcuuYLtz6">
    <mxGraphModel dx="1766" dy="1739" grid="1" gridSize="10" guides="1" tooltips="1" connect="1" arrows="1" fold="1" page="1" pageScale="1" pageWidth="1169" pageHeight="827" math="0" shadow="0">
      <root>
        <mxCell id="0" />
        <mxCell id="1" parent="0" />
        <mxCell id="uNR0yB9YS_MFiwE8tCcT-3" value="" style="edgeStyle=orthogonalEdgeStyle;rounded=0;orthogonalLoop=1;jettySize=auto;html=1;" parent="1" source="uNR0yB9YS_MFiwE8tCcT-1" target="uNR0yB9YS_MFiwE8tCcT-2" edge="1">
          <mxGeometry relative="1" as="geometry" />
        </mxCell>
        <mxCell id="uNR0yB9YS_MFiwE8tCcT-1" value="Textile Waste" style="rounded=1;whiteSpace=wrap;html=1;fontFamily=Rubik light;fontSize=22;fillColor=#fff2cc;strokeColor=#d6b656;" parent="1" vertex="1">
          <mxGeometry x="70" y="903" width="150" height="63" as="geometry" />
        </mxCell>
        <mxCell id="uNR0yB9YS_MFiwE8tCcT-5" value="" style="edgeStyle=orthogonalEdgeStyle;rounded=0;orthogonalLoop=1;jettySize=auto;html=1;" parent="1" source="uNR0yB9YS_MFiwE8tCcT-2" target="uNR0yB9YS_MFiwE8tCcT-4" edge="1">
          <mxGeometry relative="1" as="geometry" />
        </mxCell>
        <mxCell id="uNR0yB9YS_MFiwE8tCcT-2" value="Pre-Treatment" style="rounded=1;whiteSpace=wrap;html=1;fontFamily=Rubik light;fontSize=22;" parent="1" vertex="1">
          <mxGeometry x="497" y="1073" width="150" height="60" as="geometry" />
        </mxCell>
        <mxCell id="uNR0yB9YS_MFiwE8tCcT-12" value="" style="edgeStyle=orthogonalEdgeStyle;rounded=0;orthogonalLoop=1;jettySize=auto;html=1;entryX=0;entryY=0.5;entryDx=0;entryDy=0;" parent="1" source="uNR0yB9YS_MFiwE8tCcT-4" target="uNR0yB9YS_MFiwE8tCcT-6" edge="1">
          <mxGeometry relative="1" as="geometry">
            <mxPoint x="1426" y="851" as="targetPoint" />
          </mxGeometry>
        </mxCell>
        <mxCell id="uNR0yB9YS_MFiwE8tCcT-4" value="Mechanical action" style="rounded=1;whiteSpace=wrap;html=1;fontFamily=Rubik light;fontSize=22;" parent="1" vertex="1">
          <mxGeometry x="955" y="1073" width="150" height="60" as="geometry" />
        </mxCell>
        <mxCell id="uNR0yB9YS_MFiwE8tCcT-6" value="Fluff" style="rounded=1;whiteSpace=wrap;html=1;fontFamily=Rubik light;fontSize=22;fillColor=#d5e8d4;strokeColor=#82b366;" parent="1" vertex="1">
          <mxGeometry x="1429" y="984" width="150" height="60" as="geometry" />
        </mxCell>
        <mxCell id="uNR0yB9YS_MFiwE8tCcT-7" value="Fibres" style="rounded=1;whiteSpace=wrap;html=1;fontFamily=Rubik light;fontSize=22;fillColor=#d5e8d4;strokeColor=#82b366;" parent="1" vertex="1">
          <mxGeometry x="1429" y="1073" width="150" height="60" as="geometry" />
        </mxCell>
        <mxCell id="uNR0yB9YS_MFiwE8tCcT-8" value="Filling Material" style="rounded=1;whiteSpace=wrap;html=1;fontFamily=Rubik light;fontSize=22;fillColor=#d5e8d4;strokeColor=#82b366;" parent="1" vertex="1">
          <mxGeometry x="1429" y="1153" width="150" height="60" as="geometry" />
        </mxCell>
        <mxCell id="uNR0yB9YS_MFiwE8tCcT-9" value="Chemical Treatment" style="rounded=1;whiteSpace=wrap;html=1;fontFamily=Rubik light;fontSize=22;" parent="1" vertex="1">
          <mxGeometry x="720" y="1072" width="150" height="60" as="geometry" />
        </mxCell>
        <mxCell id="uNR0yB9YS_MFiwE8tCcT-13" value="" style="endArrow=classic;html=1;rounded=0;exitX=1;exitY=0.5;exitDx=0;exitDy=0;" parent="1" source="uNR0yB9YS_MFiwE8tCcT-4" target="uNR0yB9YS_MFiwE8tCcT-7" edge="1">
          <mxGeometry width="50" height="50" relative="1" as="geometry">
            <mxPoint x="942" y="1393" as="sourcePoint" />
            <mxPoint x="992" y="1343" as="targetPoint" />
          </mxGeometry>
        </mxCell>
        <mxCell id="uNR0yB9YS_MFiwE8tCcT-16" value="" style="edgeStyle=orthogonalEdgeStyle;rounded=0;orthogonalLoop=1;jettySize=auto;html=1;entryX=0;entryY=0.5;entryDx=0;entryDy=0;exitX=1;exitY=0.5;exitDx=0;exitDy=0;" parent="1" source="uNR0yB9YS_MFiwE8tCcT-4" target="uNR0yB9YS_MFiwE8tCcT-8" edge="1">
          <mxGeometry relative="1" as="geometry">
            <mxPoint x="1085" y="1113" as="sourcePoint" />
            <mxPoint x="1152" y="1043" as="targetPoint" />
          </mxGeometry>
        </mxCell>
        <mxCell id="uNR0yB9YS_MFiwE8tCcT-31" value="Mixed Fabrics" style="rounded=1;whiteSpace=wrap;html=1;fontFamily=Rubik light;fontSize=22;fillColor=#fff2cc;strokeColor=#d6b656;" parent="1" vertex="1">
          <mxGeometry x="270" y="505" width="150" height="90" as="geometry" />
        </mxCell>
        <mxCell id="uNR0yB9YS_MFiwE8tCcT-34" value="" style="edgeStyle=orthogonalEdgeStyle;rounded=0;orthogonalLoop=1;jettySize=auto;html=1;" parent="1" source="uNR0yB9YS_MFiwE8tCcT-33" target="uNR0yB9YS_MFiwE8tCcT-31" edge="1">
          <mxGeometry relative="1" as="geometry" />
        </mxCell>
        <mxCell id="uNR0yB9YS_MFiwE8tCcT-33" value="Sorting" style="rounded=1;whiteSpace=wrap;html=1;fontFamily=Rubik light;fontSize=22;" parent="1" vertex="1">
          <mxGeometry x="270" y="902" width="150" height="60" as="geometry" />
        </mxCell>
        <mxCell id="uNR0yB9YS_MFiwE8tCcT-39" value="" style="edgeStyle=orthogonalEdgeStyle;rounded=0;orthogonalLoop=1;jettySize=auto;html=1;" parent="1" source="uNR0yB9YS_MFiwE8tCcT-36" target="uNR0yB9YS_MFiwE8tCcT-38" edge="1">
          <mxGeometry relative="1" as="geometry" />
        </mxCell>
        <mxCell id="uNR0yB9YS_MFiwE8tCcT-36" value="Melt Processing" style="rounded=1;whiteSpace=wrap;html=1;fontFamily=Rubik light;fontSize=22;" parent="1" vertex="1">
          <mxGeometry x="1201" y="785" width="150" height="60" as="geometry" />
        </mxCell>
        <mxCell id="uNR0yB9YS_MFiwE8tCcT-37" value="" style="edgeStyle=orthogonalEdgeStyle;rounded=0;orthogonalLoop=1;jettySize=auto;html=1;entryX=0;entryY=0.5;entryDx=0;entryDy=0;exitX=0.447;exitY=0.023;exitDx=0;exitDy=0;exitPerimeter=0;" parent="1" source="uNR0yB9YS_MFiwE8tCcT-43" target="gpuwcMl62I-yFC2jny8J-45" edge="1">
          <mxGeometry relative="1" as="geometry">
            <mxPoint x="627" y="863" as="sourcePoint" />
            <mxPoint x="700" y="863" as="targetPoint" />
            <Array as="points">
              <mxPoint x="557" y="887" />
              <mxPoint x="557" y="815" />
            </Array>
          </mxGeometry>
        </mxCell>
        <mxCell id="uNR0yB9YS_MFiwE8tCcT-38" value="Fibres" style="whiteSpace=wrap;html=1;fontSize=22;fontFamily=Rubik light;rounded=1;fillColor=#dae8fc;strokeColor=#6c8ebf;" parent="1" vertex="1">
          <mxGeometry x="1429" y="785" width="150" height="60" as="geometry" />
        </mxCell>
        <mxCell id="uNR0yB9YS_MFiwE8tCcT-40" value="Filaments" style="whiteSpace=wrap;html=1;fontSize=22;fontFamily=Rubik light;rounded=1;fillColor=#dae8fc;strokeColor=#6c8ebf;" parent="1" vertex="1">
          <mxGeometry x="1429" y="700" width="150" height="60" as="geometry" />
        </mxCell>
        <mxCell id="uNR0yB9YS_MFiwE8tCcT-41" value="" style="edgeStyle=orthogonalEdgeStyle;rounded=0;orthogonalLoop=1;jettySize=auto;html=1;entryX=0;entryY=0.5;entryDx=0;entryDy=0;exitX=0.5;exitY=0;exitDx=0;exitDy=0;" parent="1" source="uNR0yB9YS_MFiwE8tCcT-36" target="uNR0yB9YS_MFiwE8tCcT-40" edge="1">
          <mxGeometry relative="1" as="geometry">
            <mxPoint x="1075" y="700" as="sourcePoint" />
            <mxPoint x="1155" y="700" as="targetPoint" />
          </mxGeometry>
        </mxCell>
        <mxCell id="uNR0yB9YS_MFiwE8tCcT-57" value="" style="edgeStyle=orthogonalEdgeStyle;rounded=0;orthogonalLoop=1;jettySize=auto;html=1;entryX=0;entryY=0.5;entryDx=0;entryDy=0;" parent="1" source="uNR0yB9YS_MFiwE8tCcT-42" target="uNR0yB9YS_MFiwE8tCcT-56" edge="1">
          <mxGeometry relative="1" as="geometry">
            <mxPoint x="790" y="-376" as="targetPoint" />
          </mxGeometry>
        </mxCell>
        <mxCell id="uNR0yB9YS_MFiwE8tCcT-42" value="Ligno-cellulosic structures" style="rounded=1;whiteSpace=wrap;html=1;fontFamily=Rubik light;fontSize=22;fillColor=#e1d5e7;strokeColor=#9673a6;" parent="1" vertex="1">
          <mxGeometry x="618" y="-421" width="150" height="90" as="geometry" />
        </mxCell>
        <mxCell id="uNR0yB9YS_MFiwE8tCcT-43" value="Not so mixed fabrics" style="rounded=1;whiteSpace=wrap;html=1;fontFamily=Rubik light;fontSize=22;fillColor=#fff2cc;strokeColor=#d6b656;" parent="1" vertex="1">
          <mxGeometry x="497" y="885" width="150" height="90" as="geometry" />
        </mxCell>
        <mxCell id="uNR0yB9YS_MFiwE8tCcT-55" value="" style="edgeStyle=orthogonalEdgeStyle;rounded=0;orthogonalLoop=1;jettySize=auto;html=1;" parent="1" source="uNR0yB9YS_MFiwE8tCcT-50" target="uNR0yB9YS_MFiwE8tCcT-42" edge="1">
          <mxGeometry relative="1" as="geometry" />
        </mxCell>
        <mxCell id="uNR0yB9YS_MFiwE8tCcT-50" value="Dissolution of cotton" style="rounded=1;whiteSpace=wrap;html=1;fontFamily=Rubik light;fontSize=22;" parent="1" vertex="1">
          <mxGeometry x="414" y="-406" width="150" height="60" as="geometry" />
        </mxCell>
        <mxCell id="uNR0yB9YS_MFiwE8tCcT-52" value="Thermo-plastic melt" style="rounded=1;whiteSpace=wrap;html=1;fontFamily=Rubik light;fontSize=22;fillColor=#dae8fc;strokeColor=#6c8ebf;" parent="1" vertex="1">
          <mxGeometry x="991" y="770" width="150" height="90" as="geometry" />
        </mxCell>
        <mxCell id="uNR0yB9YS_MFiwE8tCcT-54" value="" style="edgeStyle=orthogonalEdgeStyle;rounded=0;orthogonalLoop=1;jettySize=auto;html=1;exitX=1;exitY=0.5;exitDx=0;exitDy=0;" parent="1" source="uNR0yB9YS_MFiwE8tCcT-52" edge="1" target="uNR0yB9YS_MFiwE8tCcT-36">
          <mxGeometry relative="1" as="geometry">
            <mxPoint x="627" y="863" as="sourcePoint" />
            <mxPoint x="940" y="810" as="targetPoint" />
          </mxGeometry>
        </mxCell>
        <mxCell id="uNR0yB9YS_MFiwE8tCcT-59" value="" style="edgeStyle=orthogonalEdgeStyle;rounded=0;orthogonalLoop=1;jettySize=auto;html=1;exitX=1;exitY=0.5;exitDx=0;exitDy=0;" parent="1" source="uNR0yB9YS_MFiwE8tCcT-56" target="uNR0yB9YS_MFiwE8tCcT-58" edge="1">
          <mxGeometry relative="1" as="geometry">
            <mxPoint x="910" y="-368" as="sourcePoint" />
          </mxGeometry>
        </mxCell>
        <mxCell id="uNR0yB9YS_MFiwE8tCcT-56" value="Pulping (eg NaOH/Na2S + mechanical" style="whiteSpace=wrap;html=1;fontSize=22;fontFamily=Rubik light;rounded=1;" parent="1" vertex="1">
          <mxGeometry x="804" y="-436" width="150" height="120" as="geometry" />
        </mxCell>
        <mxCell id="uNR0yB9YS_MFiwE8tCcT-65" value="" style="edgeStyle=orthogonalEdgeStyle;rounded=0;orthogonalLoop=1;jettySize=auto;html=1;entryX=0;entryY=0.5;entryDx=0;entryDy=0;exitX=0.967;exitY=0.318;exitDx=0;exitDy=0;exitPerimeter=0;" parent="1" source="uNR0yB9YS_MFiwE8tCcT-58" target="uNR0yB9YS_MFiwE8tCcT-63" edge="1">
          <mxGeometry relative="1" as="geometry" />
        </mxCell>
        <mxCell id="uNR0yB9YS_MFiwE8tCcT-58" value="Cellulose Fibres, (Hemi, Lignin)" style="whiteSpace=wrap;html=1;fontSize=22;fontFamily=Rubik light;fillColor=#e1d5e7;strokeColor=#9673a6;rounded=1;" parent="1" vertex="1">
          <mxGeometry x="995" y="-431" width="150" height="110" as="geometry" />
        </mxCell>
        <mxCell id="uNR0yB9YS_MFiwE8tCcT-61" value="MMCF" style="whiteSpace=wrap;html=1;fontSize=22;fontFamily=Rubik light;rounded=1;fillColor=#e1d5e7;strokeColor=#9673a6;" parent="1" vertex="1">
          <mxGeometry x="1429" y="-413" width="150" height="60" as="geometry" />
        </mxCell>
        <mxCell id="uNR0yB9YS_MFiwE8tCcT-63" value="mechanical" style="whiteSpace=wrap;html=1;fontSize=22;fontFamily=Rubik light;rounded=1;" parent="1" vertex="1">
          <mxGeometry x="1201" y="-444" width="150" height="60" as="geometry" />
        </mxCell>
        <mxCell id="uNR0yB9YS_MFiwE8tCcT-64" value="chemical" style="whiteSpace=wrap;html=1;fontSize=22;fontFamily=Rubik light;rounded=1;" parent="1" vertex="1">
          <mxGeometry x="1201" y="-339" width="150" height="60" as="geometry" />
        </mxCell>
        <mxCell id="uNR0yB9YS_MFiwE8tCcT-68" value="" style="edgeStyle=orthogonalEdgeStyle;rounded=0;orthogonalLoop=1;jettySize=auto;html=1;entryX=0;entryY=0.25;entryDx=0;entryDy=0;exitX=1;exitY=0.5;exitDx=0;exitDy=0;" parent="1" source="uNR0yB9YS_MFiwE8tCcT-63" target="uNR0yB9YS_MFiwE8tCcT-61" edge="1">
          <mxGeometry relative="1" as="geometry">
            <mxPoint x="1081" y="-378" as="sourcePoint" />
            <mxPoint x="1181" y="-488" as="targetPoint" />
          </mxGeometry>
        </mxCell>
        <mxCell id="uNR0yB9YS_MFiwE8tCcT-69" value="" style="edgeStyle=orthogonalEdgeStyle;rounded=0;orthogonalLoop=1;jettySize=auto;html=1;entryX=0;entryY=0.75;entryDx=0;entryDy=0;exitX=1;exitY=0.5;exitDx=0;exitDy=0;" parent="1" source="uNR0yB9YS_MFiwE8tCcT-64" target="uNR0yB9YS_MFiwE8tCcT-61" edge="1">
          <mxGeometry relative="1" as="geometry">
            <mxPoint x="1301" y="-488" as="sourcePoint" />
            <mxPoint x="1421" y="-419" as="targetPoint" />
          </mxGeometry>
        </mxCell>
        <mxCell id="uNR0yB9YS_MFiwE8tCcT-70" value="Nano-crystals" style="whiteSpace=wrap;html=1;fontSize=22;fontFamily=Rubik light;rounded=1;fillColor=#e1d5e7;strokeColor=#9673a6;" parent="1" vertex="1">
          <mxGeometry x="1429" y="-548" width="150" height="60" as="geometry" />
        </mxCell>
        <mxCell id="uNR0yB9YS_MFiwE8tCcT-71" value="" style="edgeStyle=orthogonalEdgeStyle;rounded=0;orthogonalLoop=1;jettySize=auto;html=1;entryX=0;entryY=0.5;entryDx=0;entryDy=0;exitX=0.5;exitY=0;exitDx=0;exitDy=0;" parent="1" source="uNR0yB9YS_MFiwE8tCcT-58" target="uNR0yB9YS_MFiwE8tCcT-72" edge="1">
          <mxGeometry relative="1" as="geometry">
            <mxPoint x="1081" y="-378" as="sourcePoint" />
            <mxPoint x="1211" y="-404" as="targetPoint" />
            <Array as="points">
              <mxPoint x="1070" y="-518" />
            </Array>
          </mxGeometry>
        </mxCell>
        <mxCell id="uNR0yB9YS_MFiwE8tCcT-74" value="" style="edgeStyle=orthogonalEdgeStyle;rounded=0;orthogonalLoop=1;jettySize=auto;html=1;" parent="1" source="uNR0yB9YS_MFiwE8tCcT-72" target="uNR0yB9YS_MFiwE8tCcT-70" edge="1">
          <mxGeometry relative="1" as="geometry" />
        </mxCell>
        <mxCell id="uNR0yB9YS_MFiwE8tCcT-72" value="enzyma&lt;div&gt;tic hydrolysis&lt;/div&gt;" style="whiteSpace=wrap;html=1;fontSize=22;fontFamily=Rubik light;rounded=1;" parent="1" vertex="1">
          <mxGeometry x="1201" y="-563" width="150" height="90" as="geometry" />
        </mxCell>
        <mxCell id="uNR0yB9YS_MFiwE8tCcT-75" value="Biofuels" style="whiteSpace=wrap;html=1;fontSize=22;fontFamily=Rubik light;rounded=1;fillColor=#e1d5e7;strokeColor=#9673a6;" parent="1" vertex="1">
          <mxGeometry x="1429" y="-668" width="150" height="60" as="geometry" />
        </mxCell>
        <mxCell id="uNR0yB9YS_MFiwE8tCcT-78" value="" style="edgeStyle=orthogonalEdgeStyle;rounded=0;orthogonalLoop=1;jettySize=auto;html=1;" parent="1" source="uNR0yB9YS_MFiwE8tCcT-76" target="uNR0yB9YS_MFiwE8tCcT-75" edge="1">
          <mxGeometry relative="1" as="geometry" />
        </mxCell>
        <mxCell id="uNR0yB9YS_MFiwE8tCcT-76" value="gasification, biorefinery" style="whiteSpace=wrap;html=1;fontSize=22;fontFamily=Rubik light;rounded=1;" parent="1" vertex="1">
          <mxGeometry x="1201" y="-683" width="150" height="90" as="geometry" />
        </mxCell>
        <mxCell id="uNR0yB9YS_MFiwE8tCcT-77" value="" style="edgeStyle=orthogonalEdgeStyle;rounded=0;orthogonalLoop=1;jettySize=auto;html=1;entryX=0;entryY=0.5;entryDx=0;entryDy=0;exitX=0.25;exitY=0;exitDx=0;exitDy=0;" parent="1" source="uNR0yB9YS_MFiwE8tCcT-58" target="uNR0yB9YS_MFiwE8tCcT-76" edge="1">
          <mxGeometry relative="1" as="geometry">
            <mxPoint x="1025" y="-413" as="sourcePoint" />
            <mxPoint x="1181" y="-508" as="targetPoint" />
            <Array as="points">
              <mxPoint x="1070" y="-431" />
              <mxPoint x="1070" y="-638" />
            </Array>
          </mxGeometry>
        </mxCell>
        <mxCell id="gpuwcMl62I-yFC2jny8J-4" value="" style="edgeStyle=orthogonalEdgeStyle;rounded=0;orthogonalLoop=1;jettySize=auto;html=1;" edge="1" parent="1" source="gpuwcMl62I-yFC2jny8J-1" target="gpuwcMl62I-yFC2jny8J-3">
          <mxGeometry relative="1" as="geometry" />
        </mxCell>
        <mxCell id="gpuwcMl62I-yFC2jny8J-1" value="Dissolution of PET" style="rounded=1;whiteSpace=wrap;html=1;fontFamily=Rubik light;fontSize=22;" vertex="1" parent="1">
          <mxGeometry x="700" y="415" width="150" height="59" as="geometry" />
        </mxCell>
        <mxCell id="gpuwcMl62I-yFC2jny8J-3" value="PET polmers" style="rounded=1;whiteSpace=wrap;html=1;fontFamily=Rubik light;fontSize=22;fillColor=#dae8fc;strokeColor=#6c8ebf;" vertex="1" parent="1">
          <mxGeometry x="994" y="399" width="150" height="90" as="geometry" />
        </mxCell>
        <mxCell id="gpuwcMl62I-yFC2jny8J-5" value="Fibres" style="whiteSpace=wrap;html=1;fontSize=22;fontFamily=Rubik light;rounded=1;fillColor=#dae8fc;strokeColor=#6c8ebf;" vertex="1" parent="1">
          <mxGeometry x="1429" y="414" width="150" height="60" as="geometry" />
        </mxCell>
        <mxCell id="gpuwcMl62I-yFC2jny8J-6" value="" style="edgeStyle=orthogonalEdgeStyle;rounded=0;orthogonalLoop=1;jettySize=auto;html=1;entryX=0;entryY=0.5;entryDx=0;entryDy=0;" edge="1" parent="1" source="gpuwcMl62I-yFC2jny8J-43" target="gpuwcMl62I-yFC2jny8J-5">
          <mxGeometry relative="1" as="geometry">
            <mxPoint x="1110" y="440" as="sourcePoint" />
            <mxPoint x="1004" y="454" as="targetPoint" />
          </mxGeometry>
        </mxCell>
        <mxCell id="gpuwcMl62I-yFC2jny8J-10" value="" style="edgeStyle=orthogonalEdgeStyle;rounded=0;orthogonalLoop=1;jettySize=auto;html=1;" edge="1" parent="1" source="gpuwcMl62I-yFC2jny8J-7" target="gpuwcMl62I-yFC2jny8J-9">
          <mxGeometry relative="1" as="geometry" />
        </mxCell>
        <mxCell id="gpuwcMl62I-yFC2jny8J-7" value="Hydrolysis, Glycolysis, Methanolysis" style="rounded=1;whiteSpace=wrap;html=1;fontFamily=Rubik light;fontSize=22;" vertex="1" parent="1">
          <mxGeometry x="700" y="500" width="150" height="100" as="geometry" />
        </mxCell>
        <mxCell id="gpuwcMl62I-yFC2jny8J-8" value="" style="edgeStyle=orthogonalEdgeStyle;rounded=0;orthogonalLoop=1;jettySize=auto;html=1;exitX=1;exitY=0.5;exitDx=0;exitDy=0;entryX=0;entryY=0.5;entryDx=0;entryDy=0;" edge="1" parent="1" source="uNR0yB9YS_MFiwE8tCcT-31" target="gpuwcMl62I-yFC2jny8J-7">
          <mxGeometry relative="1" as="geometry">
            <mxPoint x="567" y="750" as="sourcePoint" />
            <mxPoint x="607" y="454" as="targetPoint" />
          </mxGeometry>
        </mxCell>
        <mxCell id="gpuwcMl62I-yFC2jny8J-9" value="PET monomers" style="rounded=1;whiteSpace=wrap;html=1;fontFamily=Rubik light;fontSize=22;fillColor=#dae8fc;strokeColor=#6c8ebf;" vertex="1" parent="1">
          <mxGeometry x="991" y="505" width="150" height="90" as="geometry" />
        </mxCell>
        <mxCell id="gpuwcMl62I-yFC2jny8J-11" value="Hydro-thermal" style="rounded=1;whiteSpace=wrap;html=1;fontFamily=Rubik light;fontSize=22;" vertex="1" parent="1">
          <mxGeometry x="694" y="280" width="150" height="60" as="geometry" />
        </mxCell>
        <mxCell id="gpuwcMl62I-yFC2jny8J-14" value="" style="edgeStyle=orthogonalEdgeStyle;rounded=0;orthogonalLoop=1;jettySize=auto;html=1;exitX=0.5;exitY=0;exitDx=0;exitDy=0;entryX=0;entryY=0.5;entryDx=0;entryDy=0;" edge="1" parent="1" source="uNR0yB9YS_MFiwE8tCcT-31" target="uNR0yB9YS_MFiwE8tCcT-50">
          <mxGeometry relative="1" as="geometry">
            <mxPoint x="727" y="454" as="sourcePoint" />
            <mxPoint x="1004" y="454" as="targetPoint" />
          </mxGeometry>
        </mxCell>
        <mxCell id="gpuwcMl62I-yFC2jny8J-28" value="" style="edgeStyle=orthogonalEdgeStyle;rounded=0;orthogonalLoop=1;jettySize=auto;html=1;exitX=1;exitY=0.5;exitDx=0;exitDy=0;" edge="1" parent="1" source="gpuwcMl62I-yFC2jny8J-15" target="gpuwcMl62I-yFC2jny8J-27">
          <mxGeometry relative="1" as="geometry" />
        </mxCell>
        <mxCell id="gpuwcMl62I-yFC2jny8J-30" style="edgeStyle=orthogonalEdgeStyle;rounded=0;orthogonalLoop=1;jettySize=auto;html=1;entryX=0;entryY=0.5;entryDx=0;entryDy=0;exitX=1;exitY=0;exitDx=0;exitDy=0;" edge="1" parent="1" source="gpuwcMl62I-yFC2jny8J-15" target="gpuwcMl62I-yFC2jny8J-26">
          <mxGeometry relative="1" as="geometry">
            <mxPoint x="700" y="40" as="targetPoint" />
          </mxGeometry>
        </mxCell>
        <mxCell id="gpuwcMl62I-yFC2jny8J-15" value="Enzymatic" style="rounded=1;whiteSpace=wrap;html=1;fontFamily=Rubik light;fontSize=22;" vertex="1" parent="1">
          <mxGeometry x="688" y="45" width="150" height="60" as="geometry" />
        </mxCell>
        <mxCell id="gpuwcMl62I-yFC2jny8J-21" value="" style="edgeStyle=orthogonalEdgeStyle;rounded=0;orthogonalLoop=1;jettySize=auto;html=1;" edge="1" parent="1" source="gpuwcMl62I-yFC2jny8J-16" target="gpuwcMl62I-yFC2jny8J-20">
          <mxGeometry relative="1" as="geometry" />
        </mxCell>
        <mxCell id="gpuwcMl62I-yFC2jny8J-16" value="PET monmers" style="rounded=1;whiteSpace=wrap;html=1;fontFamily=Rubik light;fontSize=22;fillColor=#dae8fc;strokeColor=#6c8ebf;" vertex="1" parent="1">
          <mxGeometry x="994" y="265" width="150" height="90" as="geometry" />
        </mxCell>
        <mxCell id="gpuwcMl62I-yFC2jny8J-17" value="" style="edgeStyle=orthogonalEdgeStyle;rounded=0;orthogonalLoop=1;jettySize=auto;html=1;exitX=1;exitY=0.75;exitDx=0;exitDy=0;" edge="1" parent="1" source="gpuwcMl62I-yFC2jny8J-11">
          <mxGeometry relative="1" as="geometry">
            <mxPoint x="727" y="454" as="sourcePoint" />
            <mxPoint x="990" y="325" as="targetPoint" />
          </mxGeometry>
        </mxCell>
        <mxCell id="gpuwcMl62I-yFC2jny8J-23" value="" style="edgeStyle=orthogonalEdgeStyle;rounded=0;orthogonalLoop=1;jettySize=auto;html=1;" edge="1" parent="1" source="gpuwcMl62I-yFC2jny8J-18" target="gpuwcMl62I-yFC2jny8J-22">
          <mxGeometry relative="1" as="geometry" />
        </mxCell>
        <mxCell id="gpuwcMl62I-yFC2jny8J-18" value="Cellulose poweder / pulp" style="rounded=1;whiteSpace=wrap;html=1;fontFamily=Rubik light;fontSize=22;fillColor=#e1d5e7;strokeColor=#9673a6;" vertex="1" parent="1">
          <mxGeometry x="994" y="160" width="150" height="90" as="geometry" />
        </mxCell>
        <mxCell id="gpuwcMl62I-yFC2jny8J-19" value="" style="edgeStyle=orthogonalEdgeStyle;rounded=0;orthogonalLoop=1;jettySize=auto;html=1;exitX=1;exitY=0;exitDx=0;exitDy=0;entryX=0;entryY=0.5;entryDx=0;entryDy=0;" edge="1" parent="1" source="gpuwcMl62I-yFC2jny8J-11" target="gpuwcMl62I-yFC2jny8J-18">
          <mxGeometry relative="1" as="geometry">
            <mxPoint x="727" y="320" as="sourcePoint" />
            <mxPoint x="1004" y="320" as="targetPoint" />
          </mxGeometry>
        </mxCell>
        <mxCell id="gpuwcMl62I-yFC2jny8J-20" value="Fibres" style="whiteSpace=wrap;html=1;fontSize=22;fontFamily=Rubik light;rounded=1;fillColor=#dae8fc;strokeColor=#6c8ebf;" vertex="1" parent="1">
          <mxGeometry x="1429" y="280" width="150" height="60" as="geometry" />
        </mxCell>
        <mxCell id="gpuwcMl62I-yFC2jny8J-22" value="MMCF" style="whiteSpace=wrap;html=1;fontSize=22;fontFamily=Rubik light;rounded=1;fillColor=#e1d5e7;strokeColor=#9673a6;" vertex="1" parent="1">
          <mxGeometry x="1429" y="175" width="150" height="60" as="geometry" />
        </mxCell>
        <mxCell id="gpuwcMl62I-yFC2jny8J-24" value="" style="edgeStyle=orthogonalEdgeStyle;rounded=0;orthogonalLoop=1;jettySize=auto;html=1;exitX=0.75;exitY=0;exitDx=0;exitDy=0;entryX=0;entryY=0.5;entryDx=0;entryDy=0;" edge="1" parent="1" source="uNR0yB9YS_MFiwE8tCcT-31" target="gpuwcMl62I-yFC2jny8J-15">
          <mxGeometry relative="1" as="geometry">
            <mxPoint x="440" y="655" as="sourcePoint" />
            <mxPoint x="500" y="-28" as="targetPoint" />
          </mxGeometry>
        </mxCell>
        <mxCell id="gpuwcMl62I-yFC2jny8J-36" value="" style="edgeStyle=orthogonalEdgeStyle;rounded=0;orthogonalLoop=1;jettySize=auto;html=1;" edge="1" parent="1" source="gpuwcMl62I-yFC2jny8J-25" target="gpuwcMl62I-yFC2jny8J-35">
          <mxGeometry relative="1" as="geometry" />
        </mxCell>
        <mxCell id="gpuwcMl62I-yFC2jny8J-25" value="Cellulose powder" style="rounded=1;whiteSpace=wrap;html=1;fontFamily=Rubik light;fontSize=22;fillColor=#e1d5e7;strokeColor=#9673a6;" vertex="1" parent="1">
          <mxGeometry x="994" y="-90" width="150" height="90" as="geometry" />
        </mxCell>
        <mxCell id="gpuwcMl62I-yFC2jny8J-34" value="" style="edgeStyle=orthogonalEdgeStyle;rounded=0;orthogonalLoop=1;jettySize=auto;html=1;" edge="1" parent="1" source="gpuwcMl62I-yFC2jny8J-26" target="gpuwcMl62I-yFC2jny8J-33">
          <mxGeometry relative="1" as="geometry" />
        </mxCell>
        <mxCell id="gpuwcMl62I-yFC2jny8J-26" value="Glucose Syrup" style="rounded=1;whiteSpace=wrap;html=1;fontFamily=Rubik light;fontSize=22;fillColor=#e1d5e7;strokeColor=#9673a6;" vertex="1" parent="1">
          <mxGeometry x="995" y="-200" width="150" height="90" as="geometry" />
        </mxCell>
        <mxCell id="gpuwcMl62I-yFC2jny8J-38" value="" style="edgeStyle=orthogonalEdgeStyle;rounded=0;orthogonalLoop=1;jettySize=auto;html=1;" edge="1" parent="1" source="gpuwcMl62I-yFC2jny8J-27" target="gpuwcMl62I-yFC2jny8J-37">
          <mxGeometry relative="1" as="geometry" />
        </mxCell>
        <mxCell id="gpuwcMl62I-yFC2jny8J-27" value="PET, PA, PLA" style="rounded=1;whiteSpace=wrap;html=1;fontFamily=Rubik light;fontSize=22;fillColor=#dae8fc;strokeColor=#6c8ebf;" vertex="1" parent="1">
          <mxGeometry x="996" y="30" width="150" height="90" as="geometry" />
        </mxCell>
        <mxCell id="gpuwcMl62I-yFC2jny8J-31" style="edgeStyle=orthogonalEdgeStyle;rounded=0;orthogonalLoop=1;jettySize=auto;html=1;entryX=0;entryY=0.5;entryDx=0;entryDy=0;exitX=1;exitY=0;exitDx=0;exitDy=0;" edge="1" parent="1" source="gpuwcMl62I-yFC2jny8J-15" target="gpuwcMl62I-yFC2jny8J-25">
          <mxGeometry relative="1" as="geometry">
            <mxPoint x="820" y="50" as="targetPoint" />
            <mxPoint x="727" y="116" as="sourcePoint" />
          </mxGeometry>
        </mxCell>
        <mxCell id="gpuwcMl62I-yFC2jny8J-33" value="Plastics, Surfactants chemicals" style="whiteSpace=wrap;html=1;fontSize=22;fontFamily=Rubik light;fillColor=#e1d5e7;strokeColor=#9673a6;rounded=1;" vertex="1" parent="1">
          <mxGeometry x="1429" y="-197.5" width="150" height="85" as="geometry" />
        </mxCell>
        <mxCell id="gpuwcMl62I-yFC2jny8J-35" value="MMCF, I guess" style="whiteSpace=wrap;html=1;fontSize=22;fontFamily=Rubik light;rounded=1;fillColor=#e1d5e7;strokeColor=#9673a6;" vertex="1" parent="1">
          <mxGeometry x="1429" y="-75" width="150" height="60" as="geometry" />
        </mxCell>
        <mxCell id="gpuwcMl62I-yFC2jny8J-37" value="Stuff" style="whiteSpace=wrap;html=1;fontSize=22;fontFamily=Rubik light;rounded=1;fillColor=#dae8fc;strokeColor=#6c8ebf;" vertex="1" parent="1">
          <mxGeometry x="1429" y="45" width="150" height="60" as="geometry" />
        </mxCell>
        <mxCell id="gpuwcMl62I-yFC2jny8J-39" value="spinning" style="whiteSpace=wrap;html=1;fontSize=22;fontFamily=Rubik light;rounded=1;" vertex="1" parent="1">
          <mxGeometry x="1201" y="-75" width="150" height="60" as="geometry" />
        </mxCell>
        <mxCell id="gpuwcMl62I-yFC2jny8J-40" value="poly-merization" style="whiteSpace=wrap;html=1;fontSize=22;fontFamily=Rubik light;rounded=1;" vertex="1" parent="1">
          <mxGeometry x="1201" y="45" width="150" height="60" as="geometry" />
        </mxCell>
        <mxCell id="gpuwcMl62I-yFC2jny8J-41" value="spinning" style="whiteSpace=wrap;html=1;fontSize=22;fontFamily=Rubik light;rounded=1;" vertex="1" parent="1">
          <mxGeometry x="1201" y="175" width="150" height="60" as="geometry" />
        </mxCell>
        <mxCell id="gpuwcMl62I-yFC2jny8J-42" value="polym, spinn" style="whiteSpace=wrap;html=1;fontSize=22;fontFamily=Rubik light;rounded=1;" vertex="1" parent="1">
          <mxGeometry x="1201" y="280" width="150" height="60" as="geometry" />
        </mxCell>
        <mxCell id="gpuwcMl62I-yFC2jny8J-44" value="" style="edgeStyle=orthogonalEdgeStyle;rounded=0;orthogonalLoop=1;jettySize=auto;html=1;entryX=0;entryY=0.5;entryDx=0;entryDy=0;exitX=1;exitY=0.5;exitDx=0;exitDy=0;" edge="1" parent="1" source="gpuwcMl62I-yFC2jny8J-3" target="gpuwcMl62I-yFC2jny8J-43">
          <mxGeometry relative="1" as="geometry">
            <mxPoint x="1110" y="440" as="sourcePoint" />
            <mxPoint x="1429" y="440" as="targetPoint" />
          </mxGeometry>
        </mxCell>
        <mxCell id="gpuwcMl62I-yFC2jny8J-43" value="meltspinning?" style="whiteSpace=wrap;html=1;fontSize=22;fontFamily=Rubik light;rounded=1;" vertex="1" parent="1">
          <mxGeometry x="1201" y="414" width="150" height="60" as="geometry" />
        </mxCell>
        <mxCell id="gpuwcMl62I-yFC2jny8J-45" value="Thermo-mechanical" style="rounded=1;whiteSpace=wrap;html=1;fontFamily=Rubik light;fontSize=22;" vertex="1" parent="1">
          <mxGeometry x="700" y="765" width="150" height="100" as="geometry" />
        </mxCell>
        <mxCell id="gpuwcMl62I-yFC2jny8J-46" value="" style="edgeStyle=orthogonalEdgeStyle;rounded=0;orthogonalLoop=1;jettySize=auto;html=1;exitX=1;exitY=0.5;exitDx=0;exitDy=0;" edge="1" parent="1" source="gpuwcMl62I-yFC2jny8J-45">
          <mxGeometry relative="1" as="geometry">
            <mxPoint x="1361" y="825" as="sourcePoint" />
            <mxPoint x="990" y="815" as="targetPoint" />
          </mxGeometry>
        </mxCell>
        <mxCell id="gpuwcMl62I-yFC2jny8J-47" value="" style="edgeStyle=orthogonalEdgeStyle;rounded=0;orthogonalLoop=1;jettySize=auto;html=1;exitX=1;exitY=0;exitDx=0;exitDy=0;entryX=0;entryY=0.5;entryDx=0;entryDy=0;" edge="1" parent="1" source="uNR0yB9YS_MFiwE8tCcT-31" target="gpuwcMl62I-yFC2jny8J-1">
          <mxGeometry relative="1" as="geometry">
            <mxPoint x="860" y="560" as="sourcePoint" />
            <mxPoint x="1001" y="560" as="targetPoint" />
          </mxGeometry>
        </mxCell>
        <mxCell id="gpuwcMl62I-yFC2jny8J-48" value="" style="edgeStyle=orthogonalEdgeStyle;rounded=0;orthogonalLoop=1;jettySize=auto;html=1;exitX=1;exitY=0;exitDx=0;exitDy=0;entryX=0;entryY=0.5;entryDx=0;entryDy=0;" edge="1" parent="1" source="uNR0yB9YS_MFiwE8tCcT-31" target="gpuwcMl62I-yFC2jny8J-11">
          <mxGeometry relative="1" as="geometry">
            <mxPoint x="430" y="515" as="sourcePoint" />
            <mxPoint x="710" y="455" as="targetPoint" />
          </mxGeometry>
        </mxCell>
        <mxCell id="gpuwcMl62I-yFC2jny8J-49" value="" style="edgeStyle=orthogonalEdgeStyle;rounded=0;orthogonalLoop=1;jettySize=auto;html=1;entryX=0;entryY=0.5;entryDx=0;entryDy=0;exitX=1;exitY=0.75;exitDx=0;exitDy=0;" edge="1" parent="1" source="uNR0yB9YS_MFiwE8tCcT-58" target="uNR0yB9YS_MFiwE8tCcT-64">
          <mxGeometry relative="1" as="geometry">
            <mxPoint x="1110" y="-393" as="sourcePoint" />
            <mxPoint x="1211" y="-404" as="targetPoint" />
          </mxGeometry>
        </mxCell>
      </root>
    </mxGraphModel>
  </diagram>
</mxfile>
